<?xml version="1.0" encoding="UTF-8" standalone="no"?>
<!DOCTYPE svg PUBLIC "-//W3C//DTD SVG 1.1//EN"
 "http://www.w3.org/Graphics/SVG/1.1/DTD/svg11.dtd">
<!-- Generated by graphviz version 2.49.3 (20211104.1129)
 -->
<!-- Title: snakemake_dag Pages: 1 -->
<svg width="284pt" height="260pt"
 viewBox="0.00 0.00 283.50 260.00" xmlns="http://www.w3.org/2000/svg" xmlns:xlink="http://www.w3.org/1999/xlink">
<g id="graph0" class="graph" transform="scale(1 1) rotate(0) translate(4 256)">
<title>snakemake_dag</title>
<polygon fill="white" stroke="transparent" points="-4,4 -4,-256 279.5,-256 279.5,4 -4,4"/>
<!-- 0 -->
<g id="node1" class="node">
<title>0</title>
<path fill="none" stroke="#d8ac56" stroke-width="2" d="M93,-36C93,-36 12,-36 12,-36 6,-36 0,-30 0,-24 0,-24 0,-12 0,-12 0,-6 6,0 12,0 12,0 93,0 93,0 99,0 105,-6 105,-12 105,-12 105,-24 105,-24 105,-30 99,-36 93,-36"/>
<text text-anchor="middle" x="52.5" y="-15.5" font-family="sans" font-size="10.00">snpEff_Annotation</text>
</g>
<!-- 1 -->
<g id="node2" class="node">
<title>1</title>
<path fill="none" stroke="#59d856" stroke-width="2" stroke-dasharray="5,2" d="M118,-252C118,-252 59,-252 59,-252 53,-252 47,-246 47,-240 47,-240 47,-228 47,-228 47,-222 53,-216 59,-216 59,-216 118,-216 118,-216 124,-216 130,-222 130,-228 130,-228 130,-240 130,-240 130,-246 124,-252 118,-252"/>
<text text-anchor="middle" x="88.5" y="-231.5" font-family="sans" font-size="10.00">download_ref</text>
</g>
<!-- 1&#45;&gt;0 -->
<g id="edge1" class="edge">
<title>1&#45;&gt;0</title>
<path fill="none" stroke="grey" stroke-width="2" d="M81.65,-215.58C77.87,-205.35 73.37,-192.1 70.5,-180 59.54,-133.77 55.21,-78.46 53.53,-46.17"/>
<polygon fill="grey" stroke="grey" stroke-width="2" points="57.02,-45.98 53.05,-36.15 50.03,-46.31 57.02,-45.98"/>
</g>
<!-- 2 -->
<g id="node3" class="node">
<title>2</title>
<path fill="none" stroke="#56a9d8" stroke-width="2" stroke-dasharray="5,2" d="M135,-108C135,-108 82,-108 82,-108 76,-108 70,-102 70,-96 70,-96 70,-84 70,-84 70,-78 76,-72 82,-72 82,-72 135,-72 135,-72 141,-72 147,-78 147,-84 147,-84 147,-96 147,-96 147,-102 141,-108 135,-108"/>
<text text-anchor="middle" x="108.5" y="-87.5" font-family="sans" font-size="10.00">bcftools_call</text>
</g>
<!-- 1&#45;&gt;2 -->
<g id="edge3" class="edge">
<title>1&#45;&gt;2</title>
<path fill="none" stroke="grey" stroke-width="2" d="M82.2,-215.99C76.41,-197.87 69.68,-168.48 76.5,-144 79.17,-134.42 84.09,-124.84 89.28,-116.51"/>
<polygon fill="grey" stroke="grey" stroke-width="2" points="92.3,-118.29 94.94,-108.03 86.48,-114.41 92.3,-118.29"/>
</g>
<!-- 3 -->
<g id="node4" class="node">
<title>3</title>
<path fill="none" stroke="#56d8a9" stroke-width="2" stroke-dasharray="5,2" d="M247.5,-180C247.5,-180 207.5,-180 207.5,-180 201.5,-180 195.5,-174 195.5,-168 195.5,-168 195.5,-156 195.5,-156 195.5,-150 201.5,-144 207.5,-144 207.5,-144 247.5,-144 247.5,-144 253.5,-144 259.5,-150 259.5,-156 259.5,-156 259.5,-168 259.5,-168 259.5,-174 253.5,-180 247.5,-180"/>
<text text-anchor="middle" x="227.5" y="-159.5" font-family="sans" font-size="10.00">bwa_map</text>
</g>
<!-- 1&#45;&gt;3 -->
<g id="edge6" class="edge">
<title>1&#45;&gt;3</title>
<path fill="none" stroke="grey" stroke-width="2" d="M122.5,-215.88C141.74,-206.19 165.94,-194 186.25,-183.77"/>
<polygon fill="grey" stroke="grey" stroke-width="2" points="187.92,-186.85 195.28,-179.23 184.77,-180.6 187.92,-186.85"/>
</g>
<!-- 5 -->
<g id="node6" class="node">
<title>5</title>
<path fill="none" stroke="#d85656" stroke-width="2" stroke-dasharray="5,2" d="M165.5,-180C165.5,-180 97.5,-180 97.5,-180 91.5,-180 85.5,-174 85.5,-168 85.5,-168 85.5,-156 85.5,-156 85.5,-150 91.5,-144 97.5,-144 97.5,-144 165.5,-144 165.5,-144 171.5,-144 177.5,-150 177.5,-156 177.5,-156 177.5,-168 177.5,-168 177.5,-174 171.5,-180 165.5,-180"/>
<text text-anchor="middle" x="131.5" y="-159.5" font-family="sans" font-size="10.00">samtools_faidx</text>
</g>
<!-- 1&#45;&gt;5 -->
<g id="edge8" class="edge">
<title>1&#45;&gt;5</title>
<path fill="none" stroke="grey" stroke-width="2" d="M99.13,-215.7C104.13,-207.56 110.19,-197.69 115.71,-188.7"/>
<polygon fill="grey" stroke="grey" stroke-width="2" points="118.74,-190.46 120.99,-180.1 112.78,-186.79 118.74,-190.46"/>
</g>
<!-- 2&#45;&gt;0 -->
<g id="edge2" class="edge">
<title>2&#45;&gt;0</title>
<path fill="none" stroke="grey" stroke-width="2" d="M94.66,-71.7C88.01,-63.39 79.92,-53.28 72.61,-44.14"/>
<polygon fill="grey" stroke="grey" stroke-width="2" points="75.16,-41.73 66.18,-36.1 69.7,-46.1 75.16,-41.73"/>
</g>
<!-- 3&#45;&gt;2 -->
<g id="edge4" class="edge">
<title>3&#45;&gt;2</title>
<path fill="none" stroke="grey" stroke-width="2" d="M198.39,-143.88C182.83,-134.72 163.48,-123.34 146.72,-113.48"/>
<polygon fill="grey" stroke="grey" stroke-width="2" points="148.12,-110.24 137.72,-108.19 144.57,-116.28 148.12,-110.24"/>
</g>
<!-- 4 -->
<g id="node5" class="node">
<title>4</title>
<path fill="none" stroke="#afd856" stroke-width="2" stroke-dasharray="5,2" d="M263.5,-252C263.5,-252 191.5,-252 191.5,-252 185.5,-252 179.5,-246 179.5,-240 179.5,-240 179.5,-228 179.5,-228 179.5,-222 185.5,-216 191.5,-216 191.5,-216 263.5,-216 263.5,-216 269.5,-216 275.5,-222 275.5,-228 275.5,-228 275.5,-240 275.5,-240 275.5,-246 269.5,-252 263.5,-252"/>
<text text-anchor="middle" x="227.5" y="-231.5" font-family="sans" font-size="10.00">download_reads</text>
</g>
<!-- 4&#45;&gt;3 -->
<g id="edge7" class="edge">
<title>4&#45;&gt;3</title>
<path fill="none" stroke="grey" stroke-width="2" d="M227.5,-215.7C227.5,-207.98 227.5,-198.71 227.5,-190.11"/>
<polygon fill="grey" stroke="grey" stroke-width="2" points="231,-190.1 227.5,-180.1 224,-190.1 231,-190.1"/>
</g>
<!-- 5&#45;&gt;2 -->
<g id="edge5" class="edge">
<title>5&#45;&gt;2</title>
<path fill="none" stroke="grey" stroke-width="2" d="M125.81,-143.7C123.25,-135.9 120.17,-126.51 117.32,-117.83"/>
<polygon fill="grey" stroke="grey" stroke-width="2" points="120.57,-116.51 114.12,-108.1 113.92,-118.7 120.57,-116.51"/>
</g>
</g>
</svg>
